<svg width="10" height="12" viewBox="0 0 10 12" fill="none" xmlns="http://www.w3.org/2000/svg">
<path fill-rule="evenodd" clip-rule="evenodd" d="M0.65625 10.6562V2.65625H8.65625V10.6562C8.65625 11.0313 8.52604 11.349 8.26562 11.6094C8.00521 11.8698 7.69792 12 7.34375 12H2C1.625 12 1.30729 11.8698 1.04688 11.6094C0.786457 11.349 0.65625 11.0313 0.65625 10.6562ZM9.34375 0.65625V2H0V0.65625H2.34375L3 0H6.34375L7 0.65625H9.34375Z" fill="#333333"/>
<mask id="mask0" mask-type="alpha" maskUnits="userSpaceOnUse" x="0" y="0" width="10" height="12">
<path fill-rule="evenodd" clip-rule="evenodd" d="M0.65625 10.6562V2.65625H8.65625V10.6562C8.65625 11.0313 8.52604 11.349 8.26562 11.6094C8.00521 11.8698 7.69792 12 7.34375 12H2C1.625 12 1.30729 11.8698 1.04688 11.6094C0.786457 11.349 0.65625 11.0313 0.65625 10.6562ZM9.34375 0.65625V2H0V0.65625H2.34375L3 0H6.34375L7 0.65625H9.34375Z" fill="white"/>
</mask>
<g mask="url(#mask0)">
<rect x="-31" y="-30" width="72" height="72" fill="#333333"/>
</g>
</svg>
